# xmcd
#
# Track frame offsets: 
#        150
#        16525
#        32085
#        46045
#        58614
#        72605
#        89083
#        106822
#        122216
#        136604
#        154003
#        167211
#        184949
#        202476
#        222545
#
# Disc length: 3227 seconds
#
# Revision: 0
# Processed by: cddbd v1.4PL0 Copyright (c) Steve Scherf et al.
# Submitted via: ExactAudioCopy v0.95a3
#
DISCID=da0c990f
DTITLE=Asleep at the Wheel - Live at Billy Bob's
DYEAR=2003
DGENRE=Country
TTITLE0=Miles and Miles of Texas
TTITLE1=Get Your Kicks on Route 66
TTITLE2=One Six Pack to Go
TTITLE3=Hang Up My Spurs and Saddle
TTITLE4=Don't Fence Me In
TTITLE5=Before the Next Teardrop Falls
TTITLE6=Dance With Who Brung Ya
TTITLE7=Ain't Nobody Here But Us Chickens
TTITLE8=Amarillo by Morning
TTITLE9=Take Me Back to Tulsa
TTITLE10=You're From Texas
TTITLE11=If I Needed You
TTITLE12=Boogie Back to Texas
TTITLE13=Cotton Eyed Joe
TTITLE14=Big Balls in Cowtown
EXTD=
EXTT0=
EXTT1=
EXTT2=
EXTT3=
EXTT4=
EXTT5=
EXTT6=
EXTT7=
EXTT8=
EXTT9=
EXTT10=
EXTT11=
EXTT12=
EXTT13=
EXTT14=
PLAYORDER=
